# xmcd
#
# Track frame offsets:
#	150
#	15050
#	39213
#	57615
#	75670
#	107798
#	122508
#	140068
#
# Disc length: 2162 seconds
#
# Revision: 0
# Processed by: cddbd v1.5.1PL0 Copyright (c) Steve Scherf et al.
# Submitted via: dBpowerAMP V4.0
#
DISCID=5d087008
DTITLE=Jess Roden - Jess Roden
DYEAR=1974
DGENRE=Blues
TTITLE0=Reason to Change
TTITLE1=I'm On Your Side
TTITLE2=Feelin' Easy
TTITLE3=Sad Story
TTITLE4=On Broadway
TTITLE5=Ferry Cross
TTITLE6=Trouble in the World
TTITLE7=What the Hell
EXTD=
EXTT0=
EXTT1=
EXTT2=
EXTT3=
EXTT4=
EXTT5=
EXTT6=
EXTT7=
PLAYORDER=
